<?xml version="1.0" encoding="UTF-8" standalone="no"?>
<!-- Created with Inkscape (http://www.inkscape.org/) -->

<svg
   xmlns:dc="http://purl.org/dc/elements/1.1/"
   xmlns:cc="http://creativecommons.org/ns#"
   xmlns:rdf="http://www.w3.org/1999/02/22-rdf-syntax-ns#"
   xmlns:svg="http://www.w3.org/2000/svg"
   xmlns="http://www.w3.org/2000/svg"
   xmlns:sodipodi="http://sodipodi.sourceforge.net/DTD/sodipodi-0.dtd"
   xmlns:inkscape="http://www.inkscape.org/namespaces/inkscape"
   id="svg3577"
   height="416"
   width="192"
   version="1.1"
   inkscape:version="0.48.5 r10040"
   sodipodi:docname="computer-tower-icon.svg">
  <defs
     id="defs3679" />
  <sodipodi:namedview
     pagecolor="#ffffff"
     bordercolor="#666666"
     borderopacity="1"
     objecttolerance="10"
     gridtolerance="10"
     guidetolerance="10"
     inkscape:pageopacity="0"
     inkscape:pageshadow="2"
     inkscape:window-width="640"
     inkscape:window-height="480"
     id="namedview3677"
     showgrid="false"
     inkscape:zoom="1.6045885"
     inkscape:cx="72.77398"
     inkscape:cy="156.87634"
     inkscape:window-x="0"
     inkscape:window-y="0"
     inkscape:window-maximized="0"
     inkscape:current-layer="svg3577" />
  <metadata
     id="metadata3582">
    <rdf:RDF>
      <cc:Work
         rdf:about="">
        <dc:format>image/svg+xml</dc:format>
        <dc:type
           rdf:resource="http://purl.org/dc/dcmitype/StillImage" />
        <dc:title />
      </cc:Work>
    </rdf:RDF>
  </metadata>
  <g
     id="layer1"
     transform="translate(-278.99999,-324.36222)"
     style="fill:#ffffff">
    <path
       id="path4618"
       d="m281,720.36,0-18,7,0,7,0,0-45.25c0-24.888,0.01-109.49,0.01-188v-142.75h75.993,75.993v78.5,78.5h8.4286c12,0,11.575-0.7846,11.556,21.321-0.01,9.9982-0.4417,18.854-0.9629,19.679-0.6981,1.1051-3.3266,1.592-9.9847,1.8495l-9.0371,0.3495v3.301,3.301l9.0371,0.3495c6.6581,0.2575,9.2866,0.7444,9.9847,1.8495,1.3512,2.1388,1.2962,129.54-0.057,132.07-0.9053,1.6915-2.1602,1.9343-10,1.9343h-8.9648v16.428,16.428l9.75,0.0286c5.3625,0.0157,10.312,0.0483,11,0.0722,0.8275,0.0289,1.25,1.7336,1.25,5.0436v5h-88.5-88.5v13,13h-5.5-5.5v-18zm46-78.031,0-45.031,4.75-6.4276,4.75-6.4275,30-0.1524c16.5-0.084,31.71-0.2148,33.8-0.2911,3.7791-0.1379,3.8256-0.091,8.25,8.2242l4.4495,8.3629v42.887,42.887h13.5,13.5l-0.0001-176.75-0.0002-176.75h-69-69l0.0001,176.72,0.0001,176.72,11.75,0.3167c6.4625,0.17419,12.088,0.41347,12.5,0.53174,0.4125,0.11827,0.75-20.049,0.75-44.816zm-18.345,35.203c-3.0159-3.3325-2.0417-4.1713,4.845-4.1713,6.9695,0,8.2038,1.1481,4.6713,4.345-2.4273,2.1967-7.4542,2.1049-9.5163-0.17375zm113.35-0.17126c-3.2503-3.2503-2.4068-4,4.5-4,6.9695,0,8.2038,1.1481,4.6713,4.345-2.4806,2.2449-6.7417,2.0846-9.1713-0.34501zm-115-7.5162c0-0.8339,1.5787-2.269,3.5082-3.1891,3.3526-1.5987,3.627-1.5842,6.1869,0.32702,4.6965,3.5064,4.0769,4.3783-3.1118,4.3783-5.2164,0-6.5833-0.31481-6.5833-1.5162zm113,0.67117c0-1.1063,3.0291-3.6839,5.2587-4.4749,2.4368-0.86452,6.4017,0.81695,7.7157,3.2721,1.0562,1.9736,0.8409,2.0479-5.9392,2.0479-3.8694,0-7.0352-0.38026-7.0352-0.84501zm-105.8-64.077c3.5826-6.4672,5.7978-6.7004,5.7978-0.6104,0,3.8615-2.6037,6.5325-6.3679,6.5325h-2.7105zm110.81,5.1721c0.01-0.4125,1.4116-3.1954,3.1255-6.1843l3.1161-5.4343,1.4867,2.8375c1.3259,2.5306,1.3141,3.1993-0.1093,6.1843-1.2892,2.7032-2.176,3.3468-4.6122,3.3468-1.6589,0-3.012-0.33751-3.0068-0.75001zm-117.4-1.8318c-1.1061-2.8825-0.6297-7.2526,0.9644-8.8468,0.8643-0.8643,2.9411-1.5714,4.615-1.5714h3.0436l-1.7453,2.6637c-0.9599,1.465-2.6311,4.165-3.7138,6-2.2612,3.8324-2.3481,3.8806-3.1639,1.7545zm113-1c-1.9206-5.005,1.1155-9.8307,5.8155-9.2432l2.5993,0.325-3.2383,5.25c-3.4633,5.6147-4.223,6.1531-5.1765,3.6682zm-106.68-35.341-2.9231-2.923,0-54.354c0-58.412-0.1139-57.062,5.0467-59.824,2.8314-1.5153,109.4-1.3355,111.84,0.1887,4.1852,2.6137,4.1993,2.8132,4.1788,58.913-0.013,35.158-0.3795,54.634-1.0522,55.891-2.7528,5.1435-1.426,5.0319-59.816,5.0319h-54.355zm7.0769-4.6839c0-1.8859-0.5298-2.393-2.5-2.393-1.977,0-2.5,0.5056-2.5,2.4167,0,1.3291,0.5625,2.6128,1.25,2.8527,2.2044,0.7689,3.75-0.4166,3.75-2.8764zm107,0c0-1.8859-0.5298-2.393-2.5-2.393-1.977,0-2.5,0.5056-2.5,2.4167,0,1.3291,0.5625,2.6128,1.25,2.8527,2.2044,0.7689,3.75-0.4166,3.75-2.8764zm-39-1.908c16.813-6.1155,30.94-21.458,34.931-37.935,1.4721-6.0785,1.5112-20.097,0.072-25.817-6.1321-24.371-27.245-40.758-52.463-40.721-15.236,0.022-26.449,4.6875-37.282,15.511-11,10.99-16.258,23.513-16.258,38.72,0,23.043,16.767,44.585,40,51.393,6.0184,1.7635,24.918,1.0624,31-1.1498zm-31.088-3.9295c-2.5235-0.6962-7.3396-2.7322-10.703-4.5247l-6.1144-3.2589,1.8546-4.8808c3.8946-10.25,13.142-22.852,15.43-21.028,0.6162,0.4908,2.1865,1.2199,3.4897,1.6201,1.8859,0.5792,1.5426-0.019-1.682-2.9326l-4.0515-3.6603-3.9404,2.0103c-2.1673,1.1056-7.1497,4.9554-11.072,8.555-3.9224,3.5996-8.0016,6.5447-9.0649,6.5447-4.3606,0-11.185-21.128-9.5877-29.682,0.56352-3.0171,0.88632-3.2186,6.2251-3.8856,5.7882-0.7232,19.568-0.036,22.6,1.1276,0.9374,0.3598,1.7113,1.6184,1.7197,2.7971,0.01,1.1786,0.4515,2.818,0.9847,3.643,0.7524,1.1642,0.9728,0.8697,0.9847-1.3157,0.01-1.5487,0.4479-3.6241,0.9766-4.612,1.787-3.339-3.8427-6.9386-17.401-11.126-3.3488-1.0343-6.9206-2.4888-7.9372-3.2322-1.7858-1.3058-1.7719-1.5018,0.4112-5.7827,2.8683-5.6243,12.524-14.977,18.023-17.457l4.2214-1.9036,2.9138,3.4646c6.6777,7.9402,13.144,22.617,10.608,24.078-0.715,0.4121-2.1901,1.4116-3.278,2.221-1.7612,1.3105-1.4324,1.3337,3,0.2113l4.978-1.2604,0.3155-6.8929c0.1935-4.2259-0.3223-9.271-1.333-13.04-2.4634-9.1841-1.9616-10.78,3.5175-11.189,2.475-0.1848,6.975,0.1994,10,0.8538,6.0155,1.3014,16.926,6.627,17.698,8.6385,1.0016,2.6102-6.4879,16.236-12.915,23.496-2.1511,2.4298-2.5542,2.5374-4.8156,1.2854-4.1504-2.2979-4.2882-1.605-0.4086,2.054l3.7019,3.4913,4.8288-2.6281c2.6558-1.4455,7.5929-5.2666,10.971-8.4913,3.3784-3.2248,6.9777-5.8632,7.9984-5.8632,2.4405,0,6.4002,6.826,8.3881,14.46,1.8068,6.9388,2.0503,17.114,0.4334,18.113-2.1773,1.3456-18.41,1.6681-24.131,0.4794-5.5331-1.1494-5.7512-1.3144-5.7804-4.3736-0.035-3.7088-1.3283-2.1083-2.417,2.9923-0.6335,2.9677-0.3813,3.3447,3.9269,5.8694,2.5321,1.484,8.0726,3.7946,12.312,5.1347,10.294,3.254,11.237,4.2393,8.6811,9.0729-2.9798,5.6359-8.3103,11.161-14.878,15.421-3.2478,2.1067-6.2671,3.8304-6.7096,3.8304-2.704,0-10.384-11.794-13.525-20.77l-1.8439-5.2697,2.9917-2.4932c2.795-2.3293,2.8273-2.4312,0.4917-1.5495-1.375,0.519-3.7375,1.2084-5.25,1.5319-2.6157,0.5596-2.7487,0.8683-2.7243,6.3193,0.014,3.152,0.8873,9.5421,1.9405,14.2,1.3716,6.0666,1.6133,8.8326,0.8519,9.75-1.3423,1.6174-9.7641,1.5307-15.906-0.1637zm19.707-35.614c2.974-1.1115,6.2146-5.5355,6.9581-9.4992,0.7707-4.1077-1.8612-9.9248-5.7885-12.794-5.6121-4.1003-15.109-1.7953-18.339,4.4509-2.9397,5.6848-1.0025,14.464,3.7531,17.009,5.2104,2.7886,7.7605,2.9469,13.417,0.8331zm-56.799-65.191c-0.2098-1.4768-1.0069-2.25-2.3196-2.25s-2.1098,0.7732-2.3196,2.25c-0.2621,1.8457,0.1547,2.25,2.3196,2.25s2.5817-0.4043,2.3196-2.25zm107,0c-0.2098-1.4768-1.0069-2.25-2.3196-2.25s-2.1098,0.7732-2.3196,2.25c-0.2621,1.8457,0.1547,2.25,2.3196,2.25s2.5817-0.4043,2.3196-2.25zm-95.73-21.722-5.0898-6.9979,0-46.061,0-46.061,43,0.145,43,0.1449-0.026,44.651-0.026,44.651-4.3824,8-4.3825,8-33.502,0.2632-33.502,0.2632-5.0899-6.9979zm6.9102-50.028,0-43-3,0-3,0,0,43,0,43,3,0,3,0zm9.7607-0.25,0.2608-42.75-3.0108,0-3.0107,0-0.094,33.5c-0.1661,59.337-0.5266,52.704,2.8438,52.316l2.75-0.3164,0.2607-42.75zm9.3643,31.75c0.069-6.325,0.125-14.875,0.125-19s-0.056-18.33-0.125-31.566l-0.125-24.066-2.75,0.3164-2.75,0.3164-0.2613,41.499c-0.1437,22.825-0.045,42.062,0.2186,42.75,0.264,0.6878,1.619,1.2506,3.0113,1.2506h2.5314zm9.6357-31.75,0.2608-42.75-3.0108,0-3.0107,0,0,43.066,0,43.066,2.75-0.3164,2.75-0.3164zm10,0,0.2608-42.75-3.0108,0c-2.7094,0-3.0208,0.3253-3.1115,3.25-0.1184,3.8198-0.1109,39.66,0.014,65.066l0.087,17.816,2.75-0.3164,2.75-0.3164,0.2607-42.75zm9.45,11c0.1591-17.738,0.1478-37.088-0.025-43l-0.3144-10.75h-2.9356-2.9357v42.333c0,23.283,0.3,42.633,0.6667,43,0.3666,0.3667,1.6989,0.6667,2.9606,0.6667h2.2941zm10.012,0c0.1522-17.738,0.1353-37.088-0.038-43l-0.3143-10.75h-2.9357-2.9356v43,43h2.9732,2.9732l0.2768-32.25zm9.5375-11,0.2608-42.75-3.0108,0c-1.6559,0-3.0557,0.45-3.1107,1s-0.1,3.25-0.1,6,0.045,21.68,0.1,42.066l0.1,37.066,2.75-0.3164,2.75-0.3164zm-98.106,41.421c-1.7423-1.9253-2.2817-8.6659-0.7683-9.6013,1.0483-0.6479,1.8629,0.3446,5.4833,6.68l2.7143,4.75h-2.8872c-1.5879,0-3.6319-0.8229-4.5421-1.8287zm113.35-0.1713c-2.1035-2.1034-2.611-6.4855-1.0391-8.971,1.1298-1.7864,1.0311-1.8892,5.0113,5.221l3.2187,5.75h-2.5954c-1.4275,0-3.4955-0.9-4.5955-2zm-107.68-5.284c-3.5758-5.8583-3.0549-7.6788,1.6408-5.7338,3.1601,1.309,4.4686,4.0393,3.8758,8.0878-0.5573,3.8057-2.1794,3.1136-5.5166-2.354zm113.82,0.7272c-1.7067-2.7187-3.1117-5.5545-3.1221-6.3016-0.028-1.9787,5.0496-0.5661,7.231,2.0118,2.1069,2.4899,2.2246,4.8153,0.3721,7.3487-1.29,1.7643-1.5757,1.5692-4.481-3.0589zm-119.49-62.272c-2.754-3.0432-1.9251-3.8333,4.2556-4.0564,6.8066-0.2456,8.6478,1.2048,5.1377,4.0471-2.9032,2.3508-7.2703,2.3551-9.3933,0.01zm113.35-0.1713c-1.1-1.1-2-2.392-2-2.8711s2.925-0.9345,6.5-1.012c6.984-0.1515,8.2472,0.9919,4.6713,4.2281-2.4806,2.2449-6.7417,2.0846-9.1713-0.345zm-115-6.9286c0-1.3928,2.7338-3.8521,5.1261-4.6114,1.3723-0.4356,3.015,0.001,4.681,1.2453,4.5798,3.4193,3.9227,4.2947-3.2238,4.2947-3.6208,0-6.5833-0.4179-6.5833-0.9286zm113.23-0.2605c0.218-0.6541,1.526-2.0326,2.9067-3.0634,3.1258-2.3338,7.1111-1.5448,9.334,1.8477l1.5757,2.4048h-7.1064c-5.0467,0-6.9915-0.3446-6.71-1.1891zm-81.23,284.19,0-43-3,0-3,0,0,43,0,43,3,0,3,0zm9.7607-0.25,0.2608-42.75-3.0108,0-3.0107,0-0.1595,34.25c-0.088,18.838-0.2603,36.725-0.3835,39.75s0,6.9871,0.281,8.8047c0.4398,2.8777,0.8447,3.2653,3.1335,3l2.6285-0.3047zm9.6946,33.499c-0.025-5.362-0.1371-24.712-0.25-42.999l-0.2053-33.25h-3-3v43,43l3.25-0.00091,3.25-0.00091-0.045-9.7491zm9.5447-33.249,0-43-3,0-3,0,0,43,0,43,3,0,3,0zm9.7607-0.25,0.2608-42.75-3.0108,0-3.0107,0-0.077,33.75c-0.042,18.562-0.2598,34.65-0.4839,35.75-0.224,1.1-0.1254,5.2862,0.2192,9.3026,0.6132,7.146,0.6826,7.2962,3.2339,7l2.6073-0.30265,0.2607-42.75zm9.6893,39c-0.028-2.0625-0.14-21.3-0.25-42.75l-0.2-39h-3-3v42.333c0,23.283,0.3207,42.654,0.7126,43.046,0.3919,0.39192,1.8544,0.57942,3.25,0.41667,2.2235-0.25931,2.5312-0.75977,2.4874-4.0459zm9.55-38.75,0-43-3,0-3,0,0,43,0,43,3,0,3,0zm9.7607-0.25,0.2608-42.75-3.0108,0-3.0107,0,0,43.066,0,43.066,2.75-0.31642,2.75-0.31642zm55.239,22.75c0-2.4286-0.2-2.5-7-2.5s-7,0.0714-7,2.5,0.2,2.5,7,2.5,7-0.0714,7-2.5zm0-6c0-2.4286-0.2-2.5-7-2.5s-7,0.0714-7,2.5,0.2,2.5,7,2.5,7-0.0714,7-2.5zm0.0001-5.75c0.0001-2.119-0.4073-2.25-6.9994-2.25-6.5918,0-6.9995,0.13103-7.0001,2.25-0.0006,2.1191,0.4066,2.25,6.9994,2.25,6.5926,0,7-0.13096,7.0001-2.25zm-0.0001-5.75c0-1.8095-0.6667-2-7-2s-7,0.19048-7,2,0.6667,2,7,2,7-0.19048,7-2zm0-6c0-1.8095-0.6667-2-7-2s-7,0.19048-7,2,0.6667,2,7,2,7-0.19048,7-2zm0-6c0-1.8095-0.6667-2-7-2s-7,0.19048-7,2,0.6667,2,7,2,7-0.19048,7-2zm0-6c0-1.8095-0.6667-2-7-2s-7,0.19048-7,2,0.6667,2,7,2,7-0.19048,7-2zm0-6c0-1.8095-0.6667-2-7-2s-7,0.19048-7,2,0.6667,2,7,2,7-0.19048,7-2zm0-6c0-1.8095-0.6667-2-7-2s-7,0.19048-7,2,0.6667,2,7,2,7-0.19048,7-2zm-0.1804-5.7602c0.3051-2.1386,0.0002-2.2398-6.75-2.2398-6.3397,0-7.0696,0.2011-7.0696,1.9477,0,1.6353,0.8424,2.0082,5.25,2.3241,7.6887,0.55106,8.219,0.42532,8.5696-2.032zm0.1804-5.7398c0-2.4286-0.2-2.5-7-2.5s-7,0.071-7,2.5c0,2.4286,0.2,2.5,7,2.5s7-0.071,7-2.5zm0-6c0-2.4286-0.2-2.5-7-2.5s-7,0.071-7,2.5c0,2.4286,0.2,2.5,7,2.5s7-0.071,7-2.5zm0-6c0-2.4286-0.2-2.5-7-2.5s-7,0.071-7,2.5c0,2.4286,0.2,2.5,7,2.5s7-0.071,7-2.5zm0-6c0-2.4286-0.2-2.5-7-2.5s-7,0.071-7,2.5c0,2.4286,0.2,2.5,7,2.5s7-0.071,7-2.5zm0-5.5c0-1.1-0.5625-2.0255-1.25-2.0568-12.472-0.5664-12.751-0.5268-12.751,1.8068,0.0007,2.119,0.4083,2.25,7.0007,2.25,6.3333,0,7-0.1905,7-2zm0-6c0-1.8095-0.6667-2-7-2s-7,0.1905-7,2,0.6667,2,7,2,7-0.1905,7-2zm0-6c0-1.8095-0.6667-2-7-2s-7,0.1905-7,2,0.6667,2,7,2,7-0.1905,7-2zm0-6c0-1.8095-0.6667-2-7-2s-7,0.1905-7,2,0.6667,2,7,2,7-0.1905,7-2zm0-6c0-1.8095-0.6667-2-7-2s-7,0.1905-7,2,0.6667,2,7,2,7-0.1905,7-2zm0-6c0-1.8095-0.6667-2-7-2s-7,0.1905-7,2,0.6667,2,7,2,7-0.1905,7-2zm-0.75-3.9432c0.4125-0.031,0.75-0.9568,0.75-2.0568,0-1.8095-0.6667-2-7-2-6.1212,0-7,0.2302-7,1.8333,0,1.0084,0.1869,2.0209,0.4153,2.25,0.3254,0.3264,8.3927,0.3097,12.835-0.027zm0.75-7.5568c0-2.4286-0.2-2.5-7-2.5s-7,0.071-7,2.5c0,2.4286,0.2,2.5,7,2.5s7-0.071,7-2.5zm0-19c0-2.4286-0.2-2.5-7-2.5s-7,0.071-7,2.5c0,2.4286,0.2,2.5,7,2.5s7-0.071,7-2.5zm0-6.5c0-1.8095-0.6667-2-7-2s-7,0.1905-7,2,0.6667,2,7,2,7-0.1905,7-2zm0-6.5c0-2.4286-0.2-2.5-7-2.5s-7,0.071-7,2.5c0,2.4286,0.2,2.5,7,2.5s7-0.071,7-2.5zm0-6.5c0-1.8095-0.6667-2-7-2s-7,0.1905-7,2,0.6667,2,7,2,7-0.1905,7-2zm0-5.9304c0-2.2211-2.1602-2.7403-9.25-2.2231-3.8817,0.2832-4.75,0.6945-4.75,2.25,0,1.69,0.785,1.9035,7,1.9035,6.2493,0,7-0.207,7-1.9304zm0-6.5696c0-2.4286-0.2-2.5-7-2.5s-7,0.071-7,2.5c0,2.4286,0.2,2.5,7,2.5s7-0.071,7-2.5z"
       style="fill:#ffffff"
       fill="#FFF" />
  </g>
</svg>
