<?xml version="1.0" encoding="UTF-8" standalone="no"?>
<!-- Created with Inkscape (http://www.inkscape.org/) -->

<svg
   xmlns:dc="http://purl.org/dc/elements/1.1/"
   xmlns:cc="http://creativecommons.org/ns#"
   xmlns:rdf="http://www.w3.org/1999/02/22-rdf-syntax-ns#"
   xmlns:svg="http://www.w3.org/2000/svg"
   xmlns="http://www.w3.org/2000/svg"
   xmlns:sodipodi="http://sodipodi.sourceforge.net/DTD/sodipodi-0.dtd"
   xmlns:inkscape="http://www.inkscape.org/namespaces/inkscape"
   width="225.03639"
   height="227.01007"
   id="svg3700"
   version="1.1"
   inkscape:version="0.48.5 r10040"
   sodipodi:docname="New document 27">
  <defs
     id="defs3702" />
  <sodipodi:namedview
     id="base"
     pagecolor="#ffffff"
     bordercolor="#666666"
     borderopacity="1.0"
     inkscape:pageopacity="0.0"
     inkscape:pageshadow="2"
     inkscape:zoom="0.35"
     inkscape:cx="-126.76752"
     inkscape:cy="242.07647"
     inkscape:document-units="px"
     inkscape:current-layer="layer1"
     showgrid="false"
     fit-margin-top="0"
     fit-margin-left="0"
     fit-margin-right="0"
     fit-margin-bottom="0"
     inkscape:window-width="477"
     inkscape:window-height="443"
     inkscape:window-x="20"
     inkscape:window-y="20"
     inkscape:window-maximized="0" />
  <metadata
     id="metadata3705">
    <rdf:RDF>
      <cc:Work
         rdf:about="">
        <dc:format>image/svg+xml</dc:format>
        <dc:type
           rdf:resource="http://purl.org/dc/dcmitype/StillImage" />
        <dc:title></dc:title>
      </cc:Work>
    </rdf:RDF>
  </metadata>
  <g
     inkscape:label="Layer 1"
     inkscape:groupmode="layer"
     id="layer1"
     transform="translate(-501.76752,-547.42858)">
    <path
       sodipodi:nodetypes="cccscsccccccccssccccsccccscccscscscsccccsccccccccsscccccccscsscccccscccsscsccccccssscsssscscsscsssssscccssscccsssccssssccccccscccscs"
       inkscape:connector-curvature="0"
       id="path4614"
       d="m 501.96042,773.84879 c 0,-0.30129 0,-42.34049 0,-93.42034 l 0,-92.87315 2.36849,-0.78844 c 4.6768,-1.55615 6.84709,-7.42235 4.42231,-11.95229 -0.55457,-1.03705 -2.3528,-2.51804 -3.99604,-3.29136 l -2.98766,-1.40611 0.0799,-8.17883 c 0.0448,-4.49829 0.0864,-9.60328 0.10076,-11.34441 l 0.0288,-3.16528 112.20613,0.1687 112.2065,0.16869 0.207,11.36276 0.2073,11.36305 -2.247,0.49337 c -4.7364,1.04029 -7.5018,7.35162 -5.1969,11.85937 1.1888,2.32417 3.7485,4.22305 5.7195,4.24229 l 1.6858,0.0296 0,93.66126 0,93.66098 -112.3937,-0.0296 c -61.81615,0 -112.39894,-0.26044 -112.40614,-0.56202 z m 190.84549,-15.95545 c 2.6157,-0.9885 5.9641,-4.10049 7.6088,-7.07074 1.0583,-1.9122 1.2799,-5.38261 1.4831,-23.22805 l 0.2396,-20.98026 2.9051,-1.23799 c 5.2292,-2.22915 5.2341,-2.26823 5.2328,-40.62629 0,-37.94848 0.041,-37.63357 -5.3717,-40.5316 l -2.7502,-1.47239 -0.2485,-21.0063 c -0.2429,-20.59459 -0.2813,-21.0622 -2.0248,-23.86613 -0.9782,-1.57332 -1.823,-5.10855 -3.7447,-5.67324 l -4.1071,-1.20751 -47.8228,-0.21309 c -30.0735,-0.13613 -47.8227,-0.48213 -47.8227,-0.9364 -10.8106,0.16277 -22.2065,0.78102 -30.9522,0.79168 -24.79543,0.0296 -27.37413,0.13612 -30.11463,1.40432 -3.4885,1.61505 -6.687,4.80815 -7.8198,7.80711 -0.4918,1.30191 -0.7971,9.91403 -0.7971,22.49792 l 0,20.38892 -3.1845,1.47889 c -1.7781,0.82604 -3.59505,2.34547 -4.11411,3.44023 -0.5944,1.25367 -0.98085,6.18614 -1.07138,13.6745 0.0768,14.89622 0.11516,14.94978 0.12956,39.33621 0,19.51496 0.0496,20.19299 1.62419,22.19515 0.89352,1.13559 2.74804,2.53429 4.12124,3.10818 l 2.4968,1.04295 0,20.61977 c 0,22.05634 0.2427,23.7797 3.8373,27.07788 4.5827,4.20645 -0.2811,3.97355 83.21903,3.97856 52.5508,0 77.6091,-0.24859 79.0498,-0.79197 z M 536.44058,611.73161 c 0,-16.96675 0.4398,-18.85082 5.1512,-22.05222 2.4859,-1.68902 3.3781,-1.82724 11.7899,-1.82724 34.26443,0.32881 51.76643,0.0296 81.59053,0.0296 53.4635,0 51.2814,-0.21604 54.8704,5.15591 l 1.7007,2.54584 0,69.27039 c 0,76.96594 0.3747,71.42203 -5.0733,75.15525 l -2.6835,1.8391 -68.6151,0.20126 -68.61543,0.20419 -3.366,-1.70028 0,0 c -1.851,-0.93553 -4.1269,-2.84652 -5.0573,-4.24671 l -1.6921,-2.54584 0,-49.05966 m 9.5418,-2.84357 c 0.094,27.1723 0.4578,49.68648 0.8026,50.03099 0.3446,0.3445 30.76253,0.61618 67.59523,0.60316 52.4398,-0.0296 67.0969,-0.22491 67.5588,-0.9524 0.3245,-0.51082 0.5953,-30.67319 0.6015,-67.02731 0.028,-64.58892 -0.029,-66.11638 -1.4378,-66.87403 -0.9577,-0.51259 -18.4894,-0.77569 -51.6857,-0.77569 -18.8197,-1.39398 -37.7428,0 -56.6143,0 -5.5979,-0.0296 -8.3825,0 -15.29723,0 -4.9248,0 -9.4872,0.2042 -10.139,0.45489 -0.9946,0.38148 -1.1853,1.98263 -1.1853,9.94864 m 22.99103,82.96679 c -3.7579,-1.40018 -5.6685,-3.17624 -7.34513,-6.82718 -1.1957,-2.60325 -1.3785,-5.07539 -1.3928,-18.80197 -0.028,-15.0365 0.067,-15.96493 1.70213,-19.10683 2.2771,-4.37516 6.652,-6.67417 12.7008,-6.67417 7.3605,0 11.4493,2.67104 13.6537,8.91991 2.0691,5.86414 1.9201,6.06598 -4.4704,6.06598 -4.912,0 -5.6199,-0.17165 -5.6199,-1.34869 0,-3.26915 -4.3593,-4.29051 -6.3264,-1.48187 -0.9353,1.33596 -1.1665,3.99546 -1.1665,13.43832 0,6.4753 0.3182,12.60934 0.7064,13.63128 1.3828,3.63705 6.7865,3.10965 6.7865,-0.66293 0,-1.80152 0.1391,-1.84679 5.7184,-1.84679 l 5.7183,0 -0.3878,2.89091 c -0.5945,4.43289 -2.7592,8.29574 -5.7629,10.2837 -3.4822,2.30434 -10.4511,3.03446 -14.5144,1.52033 z m 78.486,0.33651 c -4.323,-1.03437 -7.0613,-3.26176 -8.9702,-7.29717 -1.8133,-3.83295 -1.8428,-4.21149 -1.8428,-23.79776 l 0,-19.90236 5.6198,0 5.6196,0 0,18.94019 c 0,21.00273 0.2547,22.27063 4.4958,22.27063 4.2397,0 4.4958,-1.2679 4.4958,-22.27063 l 0,-18.94019 5.6898,0 5.6896,0 -0.2663,20.7926 c -0.2014,15.70715 -0.5156,21.25105 -1.2859,22.66633 -3.531,6.48712 -11.1566,9.47394 -19.2459,7.53836 z m -48.2775,-25.54392 0,-25.56407 10.6777,0.24269 c 10.3976,0.23677 10.7498,0.29804 13.4493,2.36323 4.1972,3.21116 5.971,7.55022 6.002,14.68461 0.05,11.30889 -5.3469,17.28726 -15.6042,17.28726 l -3.2345,0 -0.213,8.05482 -0.2132,8.05512 -5.432,0.21901 -5.4327,0.21902 z m 17.421,-3.88891 c 1.5563,-1.77959 1.7903,-7.90092 0.3749,-9.79004 -0.5154,-0.6875 -2.1167,-1.34185 -3.5594,-1.45433 l -2.6224,-0.20421 -0.3747,6.62149 c -0.2042,3.64207 -0.2516,6.74462 -0.097,6.89468 0.7201,0.71205 5.1154,-0.73459 6.2805,-2.06729 z"
       style="fill:#ffffff" />
  </g>
</svg>
