<?xml version="1.0" encoding="UTF-8" standalone="no"?>
<!-- Created with Inkscape (http://www.inkscape.org/) -->

<svg
   xmlns:dc="http://purl.org/dc/elements/1.1/"
   xmlns:cc="http://creativecommons.org/ns#"
   xmlns:rdf="http://www.w3.org/1999/02/22-rdf-syntax-ns#"
   xmlns:svg="http://www.w3.org/2000/svg"
   xmlns="http://www.w3.org/2000/svg"
   xmlns:sodipodi="http://sodipodi.sourceforge.net/DTD/sodipodi-0.dtd"
   xmlns:inkscape="http://www.inkscape.org/namespaces/inkscape"
   width="282.61023"
   height="177.67915"
   id="svg3745"
   version="1.1"
   inkscape:version="0.48.5 r10040"
   sodipodi:docname="New document 30">
  <defs
     id="defs3747" />
  <sodipodi:namedview
     id="base"
     pagecolor="#ffffff"
     bordercolor="#666666"
     borderopacity="1.0"
     inkscape:pageopacity="0.0"
     inkscape:pageshadow="2"
     inkscape:zoom="0.35"
     inkscape:cx="-263.69488"
     inkscape:cy="-179.73185"
     inkscape:document-units="px"
     inkscape:current-layer="layer1"
     showgrid="false"
     fit-margin-top="0"
     fit-margin-left="0"
     fit-margin-right="0"
     fit-margin-bottom="0"
     inkscape:window-width="477"
     inkscape:window-height="443"
     inkscape:window-x="20"
     inkscape:window-y="20"
     inkscape:window-maximized="0" />
  <metadata
     id="metadata3750">
    <rdf:RDF>
      <cc:Work
         rdf:about="">
        <dc:format>image/svg+xml</dc:format>
        <dc:type
           rdf:resource="http://purl.org/dc/dcmitype/StillImage" />
        <dc:title></dc:title>
      </cc:Work>
    </rdf:RDF>
  </metadata>
  <g
     inkscape:label="Layer 1"
     inkscape:groupmode="layer"
     id="layer1"
     transform="translate(-638.69488,-174.95117)">
    <path
       sodipodi:nodetypes="sccccccccccscccccccccccccccccccccccccccccccccssscsssscccscsscccsscccccscccssssssssssscccccccccccccccscsccccccccccsccsssssssssssccccscsssccsssscssssssssccccsscscsccsscscccssscsss"
       inkscape:connector-curvature="0"
       id="path4622"
       d="m 653.78806,272.96681 c 0,-43.81476 -0.28308,-79.61852 -0.629,-79.56391 -0.34592,0.0547 -3.74206,0.0547 -7.54695,0 -5.99237,-0.0861 -6.91812,-0.29569 -6.91723,-1.56679 7.7e-4,-1.50427 0.44034,-1.53296 16.98,-1.10748 l 2.30587,0.0596 0,80.92104 0,80.92106 -2.09643,0 -2.09626,0 0,-79.66322 z m 67.08474,54.04327 0,-8.84864 -4.4024,0.25341 -4.4025,0.25349 -0.2495,5.241 -0.2497,5.24101 -4.5722,0 -4.572,0 0,-5.45064 0,-5.45065 -10.4819,0 -10.48223,0 -0.0887,3.14461 c -0.0479,1.72953 -0.0213,4.18232 0.0621,5.45064 l 0.15264,2.30604 -7.19092,0 -7.19109,0 0,-23.47969 0,-23.47968 7.195,0 7.19499,0 -0.27687,-5.24099 -0.27688,-5.24102 -6.91812,-0.24351 -6.91812,-0.24361 0,-18.83365 0,-18.83371 7.13536,0 7.13555,0 -0.26339,-5.241 -0.26321,-5.24101 -6.87216,-0.24352 -6.87215,-0.24359 0,-12.83382 c 0,-11.3682 0.17571,-12.99223 1.53346,-14.22158 1.33662,-1.20953 4.0972,-1.38781 21.4929,-1.38781 l 19.95926,0 -4.2124,3.35407 c -3.9985,3.18369 -6.5765,6.62823 -4.1922,5.60126 24.3505,-10.4878 67.7921,-23.12455 91.4728,-26.60861 24.9612,-3.67248 36.8862,-1.7509 103.7116,16.71165 l 23.8991,6.60284 0.218,37.25956 0.2182,37.25959 -22.4401,6.15001 c -12.342,3.38258 -25.6475,7.04934 -29.5676,8.14853 -32.0256,8.97913 -51.8044,11.95075 -68.321,10.26455 -13.4721,-1.37531 -30.2288,-5.24106 -65.01,-14.99804 -23.6202,-6.62606 -34.4976,-9.40658 -34.966,-8.93822 -0.2408,0.24082 1.261,1.63535 3.3373,3.09888 l 3.7753,2.66111 -1.6803,3.79874 c -1.3311,3.00903 -1.5678,4.7756 -1.1388,8.49757 0.2978,2.58426 0.6096,5.34113 0.6925,6.12626 0.084,0.78514 0.2944,1.28418 0.4697,1.10901 0.1756,-0.17518 1.4047,0.91837 2.7321,2.43037 2.5331,2.88491 10.175,6.34406 14.0648,6.36644 2.6566,0.0142 3.8373,0.72141 4.5832,2.741 0.4912,1.33004 1.5541,1.46958 9.5821,1.25784 l 9.0301,-0.23814 0.2479,-5.66028 0.2478,-5.66028 -9.6815,0 c -8.1732,0 -9.6819,0.20194 -9.6819,1.29584 0,3.02534 -12.0803,-1.25618 -14.9617,-5.30275 -2.1761,-3.05602 -2.3915,-8.36824 -0.4883,-12.04858 1.4589,-2.82109 1.0005,-2.845 9.9052,0.5152 19.5586,7.38032 64.658,19.35315 83.6819,22.2154 12.9706,1.9515 31.334,-1.30675 75.9552,-13.47668 16.7223,-4.56093 30.5901,-8.29252 30.8168,-8.29252 0.2271,0 0.4128,6.22631 0.4128,13.83624 0,12.71819 -0.135,13.97176 -1.6773,15.51336 -1.6131,1.61332 -2.7952,1.67713 -31.0748,1.67713 l -29.3979,0 0.2577,3.56388 0.258,3.56387 6.0795,0.24637 6.0796,0.24637 0,3.31752 0,3.31751 -10.9011,0 -10.9014,0 0,-4.61207 0,-4.6121 -5.8699,0 -5.8699,0 0,6.70849 0,6.70848 -41.0894,0 c -22.5993,0 -41.1195,-0.28301 -41.1559,-0.62892 -0.035,-0.34591 -0.1313,-2.89302 -0.2131,-5.66029 l -0.1455,-5.03136 -5.8667,0 -5.8666,0 -0.248,5.66027 -0.2478,5.6603 -7.0894,0 -7.0896,0 z M 903.94372,312.2536 c 2.4822,-1.30647 3.0617,-2.33999 3.0766,-5.48719 0.023,-4.73928 -5.8004,-7.02236 -9.2113,-3.61144 -3.4739,3.47383 -1.3869,8.64004 4.0383,9.99649 0.1455,0.036 1.089,-0.36762 2.0964,-0.89786 z m -76.5737,-26.63375 c 25.9803,-9.05276 40.5863,-36.73538 32.9498,-62.44983 -8.7922,-29.60689 -41.573,-45.15538 -69.3253,-32.88204 -13.3681,5.9121 -23.0105,16.30545 -28.0205,30.20308 -3.1303,8.68389 -3.5718,21.5811 -1.0272,30.01149 2.8596,9.47345 6.476,15.52536 13.4243,22.46426 7.0384,7.02933 12.5317,10.3475 21.8107,13.17497 8.444,2.57287 21.978,2.33892 30.1882,-0.52193 z m -23.4797,-6.04091 c -5.8677,-1.56659 -10.9347,-4.35708 -11.4197,-6.28886 -0.4685,-1.86671 0.6016,-6.44091 4.0284,-17.22151 l 1.7731,-5.57769 -1.7495,-2.22395 -1.7493,-2.22402 -1.0178,1.93178 c -2.1537,4.08759 -9.8362,15.41359 -11.3435,16.72324 -1.0664,0.92654 -2.1439,1.16006 -3.3054,0.71647 -3.4348,-1.31183 -9.612,-16.08207 -8.231,-19.68076 0.5665,-1.47654 9.828,-6.04843 17.227,-8.50398 4.1806,-1.38749 4.8036,-1.88361 5.1416,-4.09446 0.2116,-1.3836 0.3123,-2.60121 0.2239,-2.70578 -0.089,-0.10454 -3.534,0.2017 -7.6571,0.68042 -11.1935,1.29976 -14.7726,1.16911 -16.0562,-0.58607 -1.2142,-1.66045 -0.951,-2.99459 1.807,-9.16664 2.363,-5.28813 6.8139,-10.44378 9.0162,-10.44378 1.6254,0 13.8959,6.24729 18.4532,9.39516 2.2623,1.56283 2.6589,1.51343 6.4737,-0.80738 0.1964,-0.11927 -3.1056,-3.74768 -7.3373,-8.06299 -8.9534,-9.12975 -9.6392,-11.14982 -4.5496,-13.40061 7.9669,-3.5233 19.1365,-3.65503 19.9265,-0.23506 1.7825,7.71619 2.9242,14.63264 2.9242,17.71634 0,3.26745 0.2826,3.79836 2.6518,4.98023 1.4586,0.72761 2.7249,1.2269 2.814,1.10958 0.089,-0.11732 0.6169,-4.36414 1.1727,-9.43741 1.5799,-14.4245 2.8051,-16.19278 8.7745,-12.66386 7.1965,4.25428 13.3356,12.15015 11.7069,15.05627 -0.3879,0.69189 -3.8665,4.70456 -7.7302,8.91724 -6.503,7.09019 -6.9702,7.83659 -6.2891,10.04621 l 0.7357,2.38705 8.7678,-5.37266 c 5.1951,-3.18318 9.7097,-5.37258 11.0785,-5.37258 2.0079,0 2.4374,0.46708 3.2773,3.56388 1.1472,4.23173 0.5273,12.68668 -1.2409,16.91828 -1.1639,2.78528 -1.5078,2.99603 -4.859,2.97591 -1.9837,-0.0124 -7.3477,-0.38541 -11.9197,-0.82993 -8.102,-0.78784 -8.3457,-0.76076 -9.628,1.06983 -0.7235,1.03293 -1.1747,2.06679 -1.0025,2.29739 0.1721,0.2306 4.8818,2.12593 10.4667,4.21184 9.2478,3.45429 10.1772,3.99256 10.4146,6.03312 0.3127,2.68532 -3.8354,7.01908 -10.3235,10.78514 -6.6798,3.8775 -7.9176,3.50476 -13.4459,-4.04926 -2.616,-3.57435 -5.5665,-7.91096 -6.5566,-9.63697 -1.5149,-2.64113 -2.2458,-3.13914 -4.6149,-3.14461 -2.3517,-0.007 -2.7164,0.23513 -2.2156,1.46102 2.0517,5.02106 6.2884,18.43686 6.2884,19.91288 0,3.65571 -3.9731,4.69133 -10.9014,2.84154 z m -122.0031,-71.50227 c 1.87635,-1.37205 2.16032,-6.37707 0.47672,-8.40554 -1.13625,-1.36912 -5.62463,-1.79755 -7.27682,-0.69442 -1.24735,0.83294 -2.85073,3.97822 -2.85073,5.59237 0,3.72295 6.24972,5.99443 9.65083,3.50759 z"
       style="fill:#ffffff" />
  </g>
</svg>
