<?xml version="1.0" encoding="UTF-8" standalone="no"?>
<!-- Created with Inkscape (http://www.inkscape.org/) -->
<svg id="svg2" xmlns:rdf="http://www.w3.org/1999/02/22-rdf-syntax-ns#" xmlns="http://www.w3.org/2000/svg" height="179.99" width="193.88" version="1.1" xmlns:cc="http://creativecommons.org/ns#" xmlns:dc="http://purl.org/dc/elements/1.1/">
 <metadata id="metadata7">
  <rdf:RDF>
   <cc:Work rdf:about="">
    <dc:format>image/svg+xml</dc:format>
    <dc:type rdf:resource="http://purl.org/dc/dcmitype/StillImage"/>
    <dc:title/>
   </cc:Work>
  </rdf:RDF>
 </metadata>
 <g id="layer1" transform="translate(-144.02458,-441.72814)">
  <path id="path3162" fill="#FFF" d="m181.06,618.91c-6.6588-5.8393-12.34-12.063-17.105-18.738-7.2728-10.188-12.345-21.169-15.219-32.944-2.7272-11.174-3.4282-23.391-1.969-34.312,1.7095-12.794,6.283-25.228,13.384-36.385,5.2847-8.304,11.97-15.754,19.552-21.789,12.538-9.9791,27.207-15.922,42.819-17.346,2.6175-0.23878,4.6141-0.30158,8.2465-0.25935,4.0904,0.0476,6.1463,0.18752,9.6358,0.65603,9.9894,1.3412,19.204,4.5095,27.536,9.4675,2.5391,1.511,5.8945,3.8904,8.1712,5.7944,11.523,9.6361,18.975,22.71,21.494,37.706,0.69395,4.1316,0.96059,7.35,0.96073,11.596,0,3.1092-0.12002,4.8099-0.52779,7.4732-2.1757,14.21-10.275,27.365-21.592,35.072-9.3361,6.3572-20.094,8.6732-32.085,6.9072-8.2865-1.2203-15.576-4.7057-20.854-9.971-2.475-2.4691-4.3647-5.0929-5.9564-8.2703-2.3031-4.5976-3.4505-9.2356-3.6972-14.945l-0.056-1.2954-0.42299,0.0497c-2.843,0.33414-5.2659,4.3123-6.0776,9.9789-0.94115,6.57,0.85687,13.481,5.1962,19.974,6.2054,9.2843,16.718,16.625,28.624,19.988,6.5592,1.8526,13.341,2.4299,20.335,1.7309,12.38-1.2373,24.804-6.5183,35.315-15.012,2.9502-2.3838,6.6253-5.8911,9.0124-8.6009,11.124-12.628,17.804-28.142,19.522-45.339,0.31969-3.2005,0.36146-4.221,0.36112-8.8225,0-4.459-0.0276-5.1671-0.32196-8.3477-1.329-14.362-6.1401-28.906-14.165-42.819-2.9591-5.1309-6.3934-10.213-10.043-14.863-0.59778-0.76158-1.127-1.4381-1.176-1.5034-0.10085-0.1344,0.65667,0.50536,1.7704,1.4952,13.76,12.229,23.817,27.1,29.223,43.211,4.4432,13.241,5.9748,28.025,4.2855,41.366-3.4005,26.854-19.309,51.463-42.094,65.118-10.08,6.0407-21.149,9.757-32.56,10.932-3.1928,0.32863-3.9839,0.36245-8.4268,0.36029-4.5566-0.002-5.6308-0.0545-9.0203-0.43859-9.6739-1.0964-18.829-3.9461-26.885-8.3688-12.225-6.7115-21.616-16.749-27.179-29.052-2.9515-6.527-4.8375-13.849-5.4726-21.245-0.25962-3.0237-0.33509-7.4199-0.16571-9.6533,1.2073-15.919,9.9304-31.08,22.672-39.404,2.025-1.3229,3.4988-2.149,5.5143-3.0907,7.3547-3.4364,15.391-4.6425,24.197-3.6313,5.0764,0.58294,9.5839,1.8677,13.728,3.9129,3.5128,1.7336,6.2379,3.6663,8.8664,6.2885,2.4757,2.4698,4.3665,5.0953,5.9558,8.2703,2.2361,4.4669,3.3833,8.9886,3.6684,14.459l0.0928,1.7799,0.41931-0.0493c3.4905-0.41023,6.288-6.372,6.2974-13.42,0.002-1.7878-0.0924-2.8982-0.3848-4.5101-2.6499-14.605-17.597-28.216-35.755-32.56-6.9108-1.6532-13.976-1.9127-21.324-0.78342-11.388,1.7501-22.613,6.8399-32.229,14.614-9.7867,7.9123-17.542,18.271-22.523,30.084-3.7179,8.8177-5.8304,18.225-6.3403,28.235-0.12048,2.365-0.0498,8.7879,0.11989,10.893,0.80172,9.9454,2.8304,18.822,6.474,28.327,4.0845,10.655,10.262,21.475,17.656,30.925,1.4064,1.7974,1.4953,1.9136,1.4606,1.9083-0.0145-0.002-0.43586-0.36314-0.93632-0.80202z"/>
 </g>
</svg>
